<?xml version="1.0" standalone="no"?>
<!DOCTYPE svg PUBLIC "-//W3C//DTD SVG 20010904//EN"
 "http://www.w3.org/TR/2001/REC-SVG-20010904/DTD/svg10.dtd">
<svg version="1.0" xmlns="http://www.w3.org/2000/svg"
 width="654.000000pt" height="654.000000pt" viewBox="0 0 654.000000 654.000000"
 preserveAspectRatio="xMidYMid meet">

<g transform="translate(0.000000,654.000000) scale(0.100000,-0.100000)"
fill="#000000" stroke="none">
<path d="M4694 4593 c-318 -362 -498 -737 -571 -1188 -25 -156 -25 -525 1
-685 57 -366 192 -686 418 -992 69 -94 218 -268 229 -268 8 0 199 236 199 246
0 3 -29 40 -64 83 -250 299 -408 667 -456 1064 -16 124 -8 462 13 572 66 352
217 672 440 940 37 44 65 85 63 92 -8 20 -178 223 -187 223 -5 0 -43 -39 -85
-87z"/>
<path d="M5748 4628 c-104 -124 -148 -180 -148 -186 0 -4 30 -43 67 -87 244
-292 406 -667 453 -1050 17 -133 14 -401 -5 -530 -55 -373 -215 -726 -453
-1001 l-69 -80 94 -115 c52 -63 98 -115 103 -117 11 -4 145 149 231 264 226
304 365 639 425 1029 24 155 24 489 0 650 -57 384 -197 720 -427 1024 -65 85
-210 251 -220 251 -4 0 -27 -24 -51 -52z"/>
<path d="M1350 4659 c-376 -37 -603 -253 -665 -631 -10 -65 -15 -167 -15 -340
l0 -248 -315 0 -315 0 0 -160 0 -160 315 0 315 0 0 -765 0 -765 175 0 175 0 0
765 0 765 428 2 427 3 3 158 3 157 -431 0 -430 0 0 239 c0 264 11 352 55 444
79 168 234 239 480 222 86 -6 154 -16 353 -52 l33 -6 -3 164 -3 163 -35 8
c-154 33 -414 51 -550 37z"/>
<path d="M2480 4485 l0 -155 290 0 290 0 0 -1215 0 -1215 -325 0 -325 0 0
-155 0 -155 790 0 790 0 0 155 0 155 -290 0 -290 0 0 1370 0 1370 -465 0 -465
0 0 -155z"/>
</g>
</svg>
